<svg width="30" height="8" viewBox="0 0 30 8" fill="none" xmlns="http://www.w3.org/2000/svg">
<path d="M3.30433 6.02321L3.6774 7.02532C3.35762 7.31013 2.85664 7.5 2.40896 7.5C1.43898 7.5 0.756797 6.81435 0.756797 5.83333V3.16456H0V1.91983H0.756797V0.421941H2.24907V1.91983H3.44289V3.16456H2.24907V5.59072C2.24907 5.94937 2.48357 6.20253 2.77137 6.20253C2.98455 6.20253 3.19774 6.12869 3.30433 6.02321Z" fill="#403F4C"/>
<path d="M7.35945 7.5C5.71795 7.5 4.34292 6.19198 4.34292 4.64135C4.34292 3.09072 5.71795 1.79325 7.35945 1.79325C8.9903 1.79325 10.3547 3.09072 10.3547 4.64135C10.3547 6.19198 8.9903 7.5 7.35945 7.5ZM7.35945 6.20253C8.18021 6.20253 8.87305 5.48523 8.87305 4.64135C8.87305 3.79747 8.18021 3.09072 7.35945 3.09072C6.52804 3.09072 5.8352 3.79747 5.8352 4.64135C5.8352 5.48523 6.52804 6.20253 7.35945 6.20253Z" fill="#403F4C"/>
<path d="M11.5143 7.37342V0.126583H14.1364C16.5987 0.126583 18.3468 1.62447 18.3468 3.74473C18.3468 5.86498 16.5987 7.37342 14.1364 7.37342H11.5143ZM13.0812 5.95992H14.3389C15.7353 5.95992 16.7266 5.04219 16.7266 3.74473C16.7266 2.45781 15.7353 1.54008 14.3389 1.54008H13.0812V5.95992Z" fill="#44B1EF"/>
<path d="M23.1619 7.5C21.0621 7.5 19.2714 5.78059 19.2714 3.74473C19.2714 1.70886 21.0621 0 23.1619 0C25.2831 0 27.0525 1.70886 27.0525 3.74473C27.0525 5.78059 25.2831 7.5 23.1619 7.5ZM23.1619 6.0865C24.3984 6.0865 25.443 5.01055 25.443 3.74473C25.443 2.48945 24.3984 1.4135 23.1619 1.4135C21.9361 1.4135 20.8915 2.48945 20.8915 3.74473C20.8915 5.01055 21.9361 6.0865 23.1619 6.0865Z" fill="#44B1EF"/>
<path d="M29.0513 7.5C28.4971 7.5 28.06 7.05696 28.06 6.51899C28.06 6.02321 28.4971 5.58017 29.0513 5.58017C29.5736 5.58017 30 6.02321 30 6.51899C30 7.05696 29.5736 7.5 29.0513 7.5Z" fill="#44B1EF"/>
</svg>
