<svg width="20" height="20" viewBox="0 0 20 20" fill="none" xmlns="http://www.w3.org/2000/svg">
<circle cx="10" cy="10" r="9.5" stroke="#44B1EF"/>
<path d="M4.43707 9.56293C4.19568 9.56293 4 9.75862 4 10C4 10.2414 4.19568 10.4371 4.43707 10.4371H9.56293V15.5629C9.56293 15.8043 9.75862 16 10 16C10.2414 16 10.4371 15.8043 10.4371 15.5629V10.4371H15.5629C15.8043 10.4371 16 10.2414 16 10C16 9.75862 15.8043 9.56293 15.5629 9.56293H10.4371V4.43707C10.4371 4.19568 10.2414 4 10 4C9.75862 4 9.56293 4.19568 9.56293 4.43707V9.56293H4.43707Z" fill="#44B1EF"/>
</svg>
