<svg width="36" height="32" viewBox="0 0 36 32" fill="none" xmlns="http://www.w3.org/2000/svg">
<rect width="36" height="32" rx="6" fill="#44B1EF"/>
<circle cx="18" cy="16" r="9.5" stroke="#F8FAFF"/>
<path d="M12.4371 15.5629C12.1957 15.5629 12 15.7586 12 16C12 16.2414 12.1957 16.4371 12.4371 16.4371H17.5629V21.5629C17.5629 21.8043 17.7586 22 18 22C18.2414 22 18.4371 21.8043 18.4371 21.5629V16.4371H23.5629C23.8043 16.4371 24 16.2414 24 16C24 15.7586 23.8043 15.5629 23.5629 15.5629H18.4371V10.4371C18.4371 10.1957 18.2414 10 18 10C17.7586 10 17.5629 10.1957 17.5629 10.4371V15.5629H12.4371Z" fill="#F8FAFF"/>
</svg>
