<svg width="12" height="12" viewBox="0 0 12 12" fill="none" xmlns="http://www.w3.org/2000/svg">
<path d="M4.62356 1.75606C4.82414 1.24392 5.36541 0.878049 6.0001 0.878049C6.63479 0.878049 7.17607 1.24393 7.37663 1.75605C7.46616 1.98466 7.74409 2.10448 7.99742 2.02369C8.25074 1.94289 8.38352 1.69207 8.29399 1.46346C7.96032 0.611458 7.05993 0 6.0001 0C4.94026 0 4.03989 0.611463 3.70621 1.46345C3.61667 1.69206 3.74945 1.94289 4.00277 2.02369C4.25609 2.10449 4.53403 1.98466 4.62356 1.75606Z" fill="#D05F7A"/>
<path d="M0.486484 2.34146C0.217806 2.34146 0 2.53802 0 2.78049C0 3.02295 0.217806 3.21951 0.486484 3.21951H11.5135C11.7822 3.21951 12 3.02295 12 2.78049C12 2.53802 11.7822 2.34146 11.5135 2.34146H0.486484Z" fill="#D05F7A"/>
<path d="M2.05286 4.2147C2.03499 3.97277 1.80317 3.78972 1.53509 3.80585C1.26701 3.82198 1.06417 4.03118 1.08204 4.27311L1.38266 8.34243C1.43812 9.09329 1.48291 9.69981 1.58798 10.1757C1.69721 10.6706 1.88299 11.0839 2.26674 11.4078C2.65047 11.7318 3.11979 11.8716 3.67415 11.9371C4.20737 12 4.88096 12 5.71486 12H6.28488C7.11877 12 7.79235 12 8.32556 11.9371C8.87993 11.8716 9.34926 11.7318 9.73299 11.4078C10.1167 11.0839 10.3025 10.6706 10.4117 10.1757C10.5168 9.69981 10.5616 9.09329 10.617 8.34243L10.9177 4.27311C10.9356 4.03118 10.7327 3.82198 10.4647 3.80585C10.1966 3.78972 9.96476 3.97277 9.94688 4.21469L9.64851 8.25319C9.59022 9.04218 9.54869 9.59115 9.45751 10.0042C9.36906 10.4049 9.24561 10.6169 9.06827 10.7666C8.89093 10.9164 8.64822 11.0135 8.19936 11.0664C7.73662 11.1211 7.12689 11.122 6.25067 11.122H5.74907C4.87284 11.122 4.2631 11.1211 3.80035 11.0664C3.35149 11.0135 3.1088 10.9164 2.93145 10.7667C2.75412 10.6169 2.63064 10.4049 2.54219 10.0042C2.45102 9.59115 2.40948 9.04218 2.3512 8.2532L2.05286 4.2147Z" fill="#D05F7A"/>
<path d="M4.86242 5.66363C4.83569 5.42237 4.59729 5.24634 4.32995 5.27047C4.0626 5.2946 3.86755 5.50974 3.89428 5.751L4.21861 8.67783C4.24534 8.91909 4.48374 9.09512 4.75108 9.07099C5.01843 9.04687 5.21348 8.83172 5.18675 8.59046L4.86242 5.66363Z" fill="#D05F7A"/>
<path d="M8.10565 5.751C8.13239 5.50974 7.93733 5.2946 7.66999 5.27047C7.40264 5.24634 7.16425 5.42237 7.13751 5.66363L6.81319 8.59046C6.78645 8.83172 6.98151 9.04687 7.24885 9.07099C7.5162 9.09512 7.75459 8.91909 7.78133 8.67783L8.10565 5.751Z" fill="#D05F7A"/>
</svg>
