<svg width="120" height="30" viewBox="0 0 120 30" fill="none" xmlns="http://www.w3.org/2000/svg">
<path d="M13.2173 24.0928L14.7096 28.1013C13.4305 29.2405 11.4266 30 9.63584 30C5.75592 30 3.02719 27.2574 3.02719 23.3333V12.6582H0V7.67933H3.02719V1.68776H8.9963V7.67933H13.7716V12.6582H8.9963V22.3629C8.9963 23.7975 9.9343 24.8101 11.0855 24.8101C11.9382 24.8101 12.7909 24.5148 13.2173 24.0928Z" fill="#F8FAFF"/>
<path d="M29.4378 30C22.8718 30 17.3717 24.7679 17.3717 18.5654C17.3717 12.3629 22.8718 7.173 29.4378 7.173C35.9612 7.173 41.4187 12.3629 41.4187 18.5654C41.4187 24.7679 35.9612 30 29.4378 30ZM29.4378 24.8101C32.7208 24.8101 35.4922 21.9409 35.4922 18.5654C35.4922 15.1899 32.7208 12.3629 29.4378 12.3629C26.1122 12.3629 23.3408 15.1899 23.3408 18.5654C23.3408 21.9409 26.1122 24.8101 29.4378 24.8101Z" fill="#F8FAFF"/>
<path d="M46.057 29.4937V0.50633H56.5456C66.3946 0.50633 73.387 6.49789 73.387 14.9789C73.387 23.4599 66.3946 29.4937 56.5456 29.4937H46.057ZM52.3246 23.8397H57.3557C62.9411 23.8397 66.9063 20.1688 66.9063 14.9789C66.9063 9.83123 62.9411 6.16034 57.3557 6.16034H52.3246V23.8397Z" fill="#F8FAFF"/>
<path d="M92.6477 30C84.2483 30 77.0854 23.1224 77.0854 14.9789C77.0854 6.83545 84.2483 0 92.6477 0C101.132 0 108.21 6.83545 108.21 14.9789C108.21 23.1224 101.132 30 92.6477 30ZM92.6477 24.346C97.5935 24.346 101.772 20.0422 101.772 14.9789C101.772 9.95781 97.5935 5.65401 92.6477 5.65401C87.7445 5.65401 83.5661 9.95781 83.5661 14.9789C83.5661 20.0422 87.7445 24.346 92.6477 24.346Z" fill="#F8FAFF"/>
<path d="M116.205 30C113.988 30 112.24 28.2278 112.24 26.076C112.24 24.0928 113.988 22.3207 116.205 22.3207C118.295 22.3207 120 24.0928 120 26.076C120 28.2278 118.295 30 116.205 30Z" fill="#F8FAFF"/>
</svg>
